<?xml version="1.0" encoding="UTF-8" standalone="no"?>
<svg xmlns:sketch="http://www.bohemiancoding.com/sketch/ns" width="512px" height="512px" viewBox="0 0 512 512" version="1.1"
     xmlns="http://www.w3.org/2000/svg">
    <!-- Generator: Sketch 3.2.2 (9983) - http://www.bohemiancoding.com/sketch -->
    <title></title>
    <desc>Created with Sketch.</desc>
    <defs></defs>
    <g id="Page-1" stroke="none" stroke-width="1" fill="none" fill-rule="evenodd" sketch:type="MSPage">
        <g id="004_logo" sketch:type="MSArtboardGroup" fill="#000000">
            <path d="M256,510.200314 C114.8,510.200314 0,395.989961 0,255.600157 C0,115.210353 114.8,1 256,1 C397.2,1 512,115.210353 512,255.700078 C512,395.989961 397.2,510.200314 256,510.200314 L256,510.200314 L256,510.200314 Z M256,19.0858039 C124.9,19.0858039 18.2,125.20251 18.2,255.600157 C18.2,385.997804 124.9,492.11451 256,492.11451 C387.1,492.11451 493.8,385.997804 493.8,255.600157 C493.8,125.20251 387.1,19.0858039 256,19.0858039 L256,19.0858039 L256,19.0858039 Z M188.6,369.011137 C150.3,350.925333 123.6,310.457098 123.6,263.294118 C123.6,238.513569 131,215.431686 143.6,196.646431 L227.2,321.148706 L277.7,321.148706 L361.4,196.646431 C374,215.531608 381.4,238.513569 381.4,263.294118 C381.4,307.259608 358.2,345.429647 324.1,365.014275 L340.2,426.665882 C401.5,395.090667 443.4,331.240784 443.4,257.598588 C443.4,188.053176 406,127.200941 350.2,94.126902 L253.1,243.809412 L156.9,93.5273725 C100.6,126.601412 62.8,187.65349 62.8,257.598588 C62.8,333.938667 107.8,399.687059 172.7,429.963294 L188.6,369.011137 L188.6,369.011137 Z"
                  id="Shape" sketch:type="MSShapeGroup"></path>
        </g>
    </g>
</svg>
